Coordinates
nRows=9
nColumns=38

# SIMM Motion File Header:
name Coordinates
datacolumns 38
datarows 9
otherdata 1
range 1.37920000000000000000 1.38720000000000000000

Units are S.I. units (second, meters, Newtons, ...)
Angles are in degrees.

endheader
time	pelvis_tilt	pelvis_list	pelvis_rotation	pelvis_tx	pelvis_ty	pelvis_tz	hip_flexion_r	hip_adduction_r	hip_rotation_r	knee_angle_r	ankle_angle_r	subtalar_angle_r	mtp_angle_r	hip_flexion_l	hip_adduction_l	hip_rotation_l	knee_angle_l	ankle_angle_l	subtalar_angle_l	mtp_angle_l	lumbar_extension	lumbar_bending	lumbar_rotation	arm_flex_r	arm_add_r	arm_rot_r	elbow_flex_r	pro_sup_r	wrist_flex_r	wrist_dev_r	arm_flex_l	arm_add_l	arm_rot_l	elbow_flex_l	pro_sup_l	wrist_flex_l	wrist_dev_l
      1.37920000000000000000	     -2.05399768407759400000	      0.49529943217720290000	      2.92460721847522990000	      0.73210207756388179000	      0.99331121175623260000	     -0.38621416796486235000	     31.02643456826533400000	      0.30496907723670036000	     -5.43709201029956630000	    -20.68781351794668700000	      0.54959164659426407000	      0.00000000000000000000	      0.00000000000000000000	    -16.15653178707493300000	      2.86829858165029620000	      1.71094972414048030000	    -61.55635612693164700000	    -17.48735287157916200000	      0.00000000000000000000	      0.00000000000000000000	    -12.06409530051069700000	      1.91002542676370490000	    -17.94967569111154000000	    -45.56866731411403000000	    -31.64971847945389900000	    -15.26273040733879100000	    111.23252524738662000000	     63.84300865765449400000	      0.00000000000000000000	      0.00000000000000000000	    -16.54572497598152100000	    -37.15893652906581200000	      8.24103236765641790000	    134.23396655243275000000	     86.16443472236153400000	      0.00000000000000000000	      0.00000000000000000000
      1.38019999999999990000	     -1.99551220264018060000	      0.49699595192042989000	      2.85875914364938130000	      0.73217122415772795000	      0.99281009226006667000	     -0.38603255871593800000	     30.89111218001294600000	      0.36957260812743842000	     -5.40112639208994240000	    -20.56636136903683700000	      0.45860713422426297000	     -0.00000000000000000000	      0.00000000000000000222	    -15.98706575386398400000	      2.82500811317074470000	      1.52034435500948570000	    -62.34201146618572400000	    -17.26480128314733900000	     -0.00000000000000000053	     -0.00000000000000000018	    -12.13904284872396000000	      1.90220192394144720000	    -17.88201535062451000000	    -45.42138192164976100000	    -31.70081953243981600000	    -15.25959576533170500000	    111.26725704899314000000	     63.82118986703666500000	      0.00000000000000000022	      0.00000000000000000050	    -16.77235546450974700000	    -37.11446339070372600000	      8.21618250901853390000	    134.14486096317984000000	     86.19040513398650200000	     -0.00000000000000000013	     -0.00000000000000000117
      1.38120000000000000000	     -1.93700241582185730000	      0.49539510265455028000	      2.79249849008762090000	      0.73223885540226641000	      0.99229890241844965000	     -0.38584825567398823000	     30.75828841767618400000	      0.43779396252531394000	     -5.36190107861835500000	    -20.45952261489454600000	      0.36880433858537115000	      0.00000000000000000369	      0.00000000000000000591	    -15.81577391842049200000	      2.77607016712349710000	      1.32817336516152260000	    -63.12833387524890600000	    -17.04184324201668900000	     -0.00000000000000000001	      0.00000000000000000036	    -12.21356164964629800000	      1.89755961353660330000	    -17.81268959599716000000	    -45.27104683164592600000	    -31.75328803932246300000	    -15.25522874363770900000	    111.30117394055402000000	     63.80373145210268900000	     -0.00000000000000000068	      0.00000000000000000216	    -16.99816522515538600000	    -37.06768480987077700000	      8.18841989824655590000	    134.05232918842188000000	     86.21948688549079500000	      0.00000000000000000006	     -0.00000000000000000251
      1.38219999999999990000	     -1.87843426513086590000	      0.49055661956841423000	      2.72574982945885670000	      0.73230493244749939000	      0.99177785612433556000	     -0.38566131552929134000	     30.62798928802178400000	      0.50959499928855434000	     -5.31929373533175550000	    -20.36739915722962700000	      0.27688511195465576000	      0.00000000000000000928	      0.00000000000000001185	    -15.64278440509826700000	      2.72168506236314520000	      1.13472763548058910000	    -63.91512438550866200000	    -16.81837844180392900000	      0.00000000000000000090	     -0.00000000000000000071	    -12.28771495356581200000	      1.89604255637676290000	    -17.74164260333225200000	    -45.11760675619569800000	    -31.80715060073150700000	    -15.24958801272458200000	    111.33425178267674000000	     63.79064151891699200000	     -0.00000000000000000269	      0.00000000000000000305	    -17.22314060487126100000	    -37.01854772668164600000	      8.15773414841859790000	    133.95639175186096000000	     86.25172730040338800000	      0.00000000000000000007	     -0.00000000000000000381
      1.38320000000000000000	     -1.81944762620450160000	      0.48258247765489787000	      2.65855094718707540000	      0.73236962034735320000	      0.99124759881222146000	     -0.38547192083524812000	     30.49971605351715500000	      0.58489380549326853000	     -5.27332589611904460000	    -20.28985812257501600000	      0.18364532545877293000	      0.00000000000000001710	      0.00000000000000001735	    -15.46862942785848500000	      2.66206876502509940000	      0.94044425616971294000	    -64.70206735193798400000	    -16.59430256333028100000	     -0.00000000000000000043	     -0.00000000000000000386	    -12.36191670995278400000	      1.89757906404518260000	    -17.66893278925228100000	    -44.96099043859536000000	    -31.86241810913771400000	    -15.24262054232865000000	    111.36650816552182000000	     63.78190987131247900000	     -0.00000000000000000517	      0.00000000000000000311	    -17.44724181131898500000	    -36.96706107539751700000	      8.12410136144273130000	    133.85712262229097000000	     86.28711612589779600000	      0.00000000000000000002	     -0.00000000000000000617
      1.38419999999999990000	     -1.75983276996525810000	      0.47156993870782593000	      2.59092053153686660000	      0.73243302280618283000	      0.99070855049058859000	     -0.38528023891470831000	     30.37318159889576900000	      0.66361009475157273000	     -5.22399652569603390000	    -20.22684244925249400000	      0.08925465231448362300	      0.00000000000000002533	      0.00000000000000002486	    -15.29365422467418000000	      2.59745277487000200000	      0.74572663007755702000	    -65.48890466786603800000	    -16.36948803949357500000	     -0.00000000000000000268	     -0.00000000000000000928	    -12.43641407514221200000	      1.90209228966829100000	    -17.59460106749863000000	    -44.80114788759850300000	    -31.91910402635143400000	    -15.23427837313983700000	    111.39795361267683000000	     63.77752121019437900000	     -0.00000000000000000719	      0.00000000000000000326	    -17.67045518462843000000	    -36.91321026422555500000	      8.08750422487138110000	    133.75458411016868000000	     86.32565422378698400000	      0.00000000000000000006	     -0.00000000000000000846
      1.38520000000000000000	     -1.69948521087902700000	      0.45759299712260543000	      2.52288230530103340000	      0.73249522221422381000	      0.99016095608978461000	     -0.38508644471682296000	     30.24822708214312400000	      0.74567803714451519000	     -5.17134344238144820000	    -20.17832351655569700000	     -0.00596784444621006010	      0.00000000000000003662	      0.00000000000000002991	    -15.11807240611088500000	      2.52804999732838280000	      0.55095868888142130000	    -66.27542729934654600000	    -16.14378327651219900000	     -0.00000000000000000522	     -0.00000000000000001624	    -12.51133374369059200000	      1.90952710657107640000	    -17.51869000794423000000	    -44.63805277529589700000	    -31.97722707205287000000	    -15.22452124927044000000	    111.42859935174299000000	     63.77745011600900000000	     -0.00000000000000000852	      0.00000000000000000410	    -17.89278693004893500000	    -36.85696150486619900000	      8.04793191531058840000	    133.64883092121519000000	     86.36734776331887500000	     -0.00000000000000000074	     -0.00000000000000001053
      1.38619999999999990000	     -1.63839095878364740000	      0.44074157488333199000	      2.45446391201447510000	      0.73255626382775640000	      0.98960491730440614000	     -0.38489072180018757000	     30.12481477825138000000	      0.83100884554209220000	     -5.11541306145768360000	    -20.14431805768566600000	     -0.10169499658421248000	      0.00000000000000005057	      0.00000000000000003453	    -14.94198232191755500000	      2.45409853496336530000	      0.35651988466589851000	    -67.06146540545034900000	    -15.91703338903138700000	     -0.00000000000000000730	     -0.00000000000000002341	    -12.58670333415088800000	      1.91980680582831460000	    -17.44124987411650500000	    -44.47169349563331800000	    -32.03680009939342500000	    -15.21330960873052100000	    111.45845418083894000000	     63.78166632301663000000	     -0.00000000000000000923	      0.00000000000000000616	    -18.11425827677307500000	    -36.79827691853411400000	      8.00537678785032550000	    133.53991373847396000000	     86.41219944949757800000	     -0.00000000000000000163	     -0.00000000000000001265
      1.38720000000000000000	     -1.57660394129025700000	      0.42111480898612519000	      2.38571957556921980000	      0.73261616009155273000	      0.98904043087966886000	     -0.38469329193411400000	     30.00299317607394300000	      0.91948706426244675000	     -5.05628811916500620000	    -20.12487230722847500000	     -0.19754505084447041000	      0.00000000000000006691	      0.00000000000000003763	    -14.76538944764123900000	      2.37584632729718370000	      0.16280394634123946000	    -67.84688892105037900000	    -15.68908198669896600000	     -0.00000000000000000780	     -0.00000000000000003190	    -12.66247627299722300000	      1.93284613710841050000	    -17.36235888316862800000	    -44.30206930905956900000	    -32.09782935997991900000	    -15.20060398903747000000	    111.48752525354905000000	     63.79013402448601500000	     -0.00000000000000000942	      0.00000000000000000851	    -18.33489940942581200000	    -36.73711782694105900000	      7.95983467566733700000	    133.42787960712727000000	     86.46020585023924800000	     -0.00000000000000000308	     -0.00000000000000001517
